<?xml version="1.0" encoding="utf-8"?>
<!-- Generator: Adobe Illustrator 25.2.0, SVG Export Plug-In . SVG Version: 6.00 Build 0)  -->
<svg version="1.1" id="Layer_1" xmlns="http://www.w3.org/2000/svg" xmlns:xlink="http://www.w3.org/1999/xlink" x="0px" y="0px"
	 viewBox="0 0 482.45 198.17" style="enable-background:new 0 0 482.45 198.17;" xml:space="preserve">
<style type="text/css">
	.st0{fill:#C23C8E;}
</style>
<g>
	<path class="st0" d="M220.33,75.46l3.72-0.64v30.44c-0.85,0.24-1.95,0.48-3.28,0.72c-1.33,0.24-2.87,0.36-4.6,0.36
		c-1.6,0-3.04-0.25-4.32-0.76c-1.28-0.51-2.37-1.23-3.28-2.16c-0.91-0.93-1.61-2.07-2.1-3.42c-0.49-1.35-0.74-2.86-0.74-4.54
		c0-1.6,0.21-3.07,0.62-4.4c0.41-1.33,1.02-2.48,1.82-3.44s1.78-1.71,2.94-2.24c1.16-0.53,2.49-0.8,3.98-0.8
		c1.2,0,2.26,0.16,3.18,0.48c0.92,0.32,1.61,0.63,2.06,0.92V75.46z M220.33,89.46c-0.45-0.37-1.11-0.73-1.96-1.08
		c-0.85-0.35-1.79-0.52-2.8-0.52c-1.07,0-1.98,0.19-2.74,0.58s-1.38,0.92-1.86,1.6c-0.48,0.68-0.83,1.49-1.04,2.42
		c-0.21,0.93-0.32,1.93-0.32,3c0,2.43,0.6,4.3,1.8,5.62c1.2,1.32,2.8,1.98,4.8,1.98c1.01,0,1.86-0.05,2.54-0.14
		c0.68-0.09,1.21-0.19,1.58-0.3V89.46z"/>
	<path class="st0" d="M247.01,105.26c-0.85,0.21-1.98,0.44-3.38,0.68c-1.4,0.24-3.02,0.36-4.86,0.36c-1.6,0-2.95-0.23-4.04-0.7
		c-1.09-0.47-1.97-1.13-2.64-1.98c-0.67-0.85-1.15-1.86-1.44-3.02c-0.29-1.16-0.44-2.45-0.44-3.86V85.06h3.72v10.88
		c0,2.53,0.4,4.35,1.2,5.44c0.8,1.09,2.15,1.64,4.04,1.64c0.4,0,0.81-0.01,1.24-0.04c0.43-0.03,0.83-0.06,1.2-0.1
		c0.37-0.04,0.71-0.08,1.02-0.12c0.31-0.04,0.53-0.09,0.66-0.14V85.06h3.72V105.26z"/>
	<path class="st0" d="M271.77,95.46c0,1.65-0.24,3.15-0.72,4.48c-0.48,1.33-1.15,2.48-2.02,3.44c-0.87,0.96-1.9,1.7-3.1,2.22
		c-1.2,0.52-2.51,0.78-3.92,0.78s-2.72-0.26-3.92-0.78c-1.2-0.52-2.23-1.26-3.1-2.22c-0.87-0.96-1.54-2.11-2.02-3.44
		c-0.48-1.33-0.72-2.83-0.72-4.48c0-1.63,0.24-3.11,0.72-4.46c0.48-1.35,1.15-2.5,2.02-3.46c0.87-0.96,1.9-1.7,3.1-2.22
		c1.2-0.52,2.51-0.78,3.92-0.78s2.72,0.26,3.92,0.78c1.2,0.52,2.23,1.26,3.1,2.22c0.87,0.96,1.54,2.11,2.02,3.46
		C271.53,92.35,271.77,93.84,271.77,95.46z M267.89,95.46c0-2.35-0.53-4.21-1.58-5.58c-1.05-1.37-2.49-2.06-4.3-2.06
		s-3.25,0.69-4.3,2.06c-1.05,1.37-1.58,3.23-1.58,5.58c0,2.35,0.53,4.21,1.58,5.58c1.05,1.37,2.49,2.06,4.3,2.06s3.25-0.69,4.3-2.06
		C267.37,99.67,267.89,97.81,267.89,95.46z"/>
	<path class="st0" d="M292.49,106.26c-2.29-0.05-3.92-0.55-4.88-1.48c-0.96-0.93-1.44-2.39-1.44-4.36V75.46l3.72-0.64v25
		c0,0.61,0.05,1.12,0.16,1.52c0.11,0.4,0.28,0.72,0.52,0.96c0.24,0.24,0.56,0.42,0.96,0.54c0.4,0.12,0.89,0.22,1.48,0.3
		L292.49,106.26z"/>
	<path class="st0" d="M296.01,95.5c0-1.84,0.27-3.45,0.8-4.82c0.53-1.37,1.24-2.51,2.12-3.42s1.89-1.59,3.04-2.04
		c1.15-0.45,2.32-0.68,3.52-0.68c2.8,0,4.95,0.87,6.44,2.62c1.49,1.75,2.24,4.41,2.24,7.98c0,0.16,0,0.37,0,0.62
		c0,0.25-0.01,0.49-0.04,0.7h-14.24c0.16,2.16,0.79,3.8,1.88,4.92c1.09,1.12,2.8,1.68,5.12,1.68c1.31,0,2.41-0.11,3.3-0.34
		s1.57-0.45,2.02-0.66l0.52,3.12c-0.45,0.24-1.25,0.49-2.38,0.76c-1.13,0.27-2.42,0.4-3.86,0.4c-1.81,0-3.38-0.27-4.7-0.82
		c-1.32-0.55-2.41-1.3-3.26-2.26s-1.49-2.1-1.9-3.42C296.22,98.52,296.01,97.08,296.01,95.5z M310.29,93.46
		c0.03-1.68-0.39-3.06-1.26-4.14s-2.06-1.62-3.58-1.62c-0.85,0-1.61,0.17-2.26,0.5c-0.65,0.33-1.21,0.77-1.66,1.3
		c-0.45,0.53-0.81,1.15-1.06,1.84c-0.25,0.69-0.42,1.4-0.5,2.12H310.29z"/>
	<path class="st0" d="M332.57,103.78c-0.32,0.21-0.94,0.49-1.86,0.82c-0.92,0.33-1.99,0.5-3.22,0.5c-1.25,0-2.43-0.2-3.54-0.6
		c-1.11-0.4-2.07-1.02-2.9-1.86c-0.83-0.84-1.48-1.89-1.96-3.14c-0.48-1.25-0.72-2.75-0.72-4.48c0-1.52,0.23-2.91,0.68-4.18
		c0.45-1.27,1.11-2.36,1.98-3.28c0.87-0.92,1.93-1.64,3.18-2.16c1.25-0.52,2.67-0.78,4.24-0.78c1.73,0,3.25,0.13,4.54,0.38
		c1.29,0.25,2.38,0.49,3.26,0.7v18.56c0,3.2-0.83,5.52-2.48,6.96c-1.65,1.44-4.16,2.16-7.52,2.16c-1.31,0-2.54-0.11-3.7-0.32
		c-1.16-0.21-2.17-0.47-3.02-0.76l0.68-3.24c0.75,0.29,1.66,0.55,2.74,0.78c1.08,0.23,2.21,0.34,3.38,0.34
		c2.21,0,3.81-0.44,4.78-1.32c0.97-0.88,1.46-2.28,1.46-4.2V103.78z M332.53,88.34c-0.37-0.11-0.87-0.21-1.5-0.3
		c-0.63-0.09-1.47-0.14-2.54-0.14c-2,0-3.54,0.65-4.62,1.96s-1.62,3.04-1.62,5.2c0,1.2,0.15,2.23,0.46,3.08s0.72,1.56,1.24,2.12
		c0.52,0.56,1.12,0.97,1.8,1.24c0.68,0.27,1.38,0.4,2.1,0.4c0.99,0,1.89-0.14,2.72-0.42c0.83-0.28,1.48-0.61,1.96-0.98V88.34z"/>
	<path class="st0" d="M349.37,84.54c1.49,0,2.75,0.19,3.78,0.58c1.03,0.39,1.85,0.93,2.48,1.64c0.63,0.71,1.07,1.55,1.34,2.52
		c0.27,0.97,0.4,2.05,0.4,3.22v13c-0.32,0.05-0.77,0.13-1.34,0.22s-1.22,0.18-1.94,0.26c-0.72,0.08-1.5,0.15-2.34,0.22
		c-0.84,0.07-1.67,0.1-2.5,0.1c-1.17,0-2.25-0.12-3.24-0.36c-0.99-0.24-1.84-0.62-2.56-1.14c-0.72-0.52-1.28-1.21-1.68-2.06
		c-0.4-0.85-0.6-1.88-0.6-3.08c0-1.15,0.23-2.13,0.7-2.96c0.47-0.83,1.1-1.49,1.9-2c0.8-0.51,1.73-0.88,2.8-1.12
		c1.07-0.24,2.19-0.36,3.36-0.36c0.37,0,0.76,0.02,1.16,0.06c0.4,0.04,0.78,0.09,1.14,0.16s0.67,0.13,0.94,0.18
		c0.27,0.05,0.45,0.09,0.56,0.12V92.7c0-0.61-0.07-1.22-0.2-1.82c-0.13-0.6-0.37-1.13-0.72-1.6c-0.35-0.47-0.82-0.84-1.42-1.12
		c-0.6-0.28-1.38-0.42-2.34-0.42c-1.23,0-2.3,0.09-3.22,0.26c-0.92,0.17-1.61,0.35-2.06,0.54l-0.44-3.08
		c0.48-0.21,1.28-0.42,2.4-0.62C346.85,84.64,348.06,84.54,349.37,84.54z M349.69,103.18c0.88,0,1.66-0.02,2.34-0.06
		s1.25-0.11,1.7-0.22v-6.2c-0.27-0.13-0.7-0.25-1.3-0.34c-0.6-0.09-1.33-0.14-2.18-0.14c-0.56,0-1.15,0.04-1.78,0.12
		c-0.63,0.08-1.2,0.25-1.72,0.5c-0.52,0.25-0.95,0.6-1.3,1.04c-0.35,0.44-0.52,1.02-0.52,1.74c0,1.33,0.43,2.26,1.28,2.78
		C347.06,102.92,348.23,103.18,349.69,103.18z"/>
	<path class="st0" d="M369.77,106.26c-2.29-0.05-3.92-0.55-4.88-1.48c-0.96-0.93-1.44-2.39-1.44-4.36V75.46l3.72-0.64v25
		c0,0.61,0.05,1.12,0.16,1.52c0.11,0.4,0.28,0.72,0.52,0.96c0.24,0.24,0.56,0.42,0.96,0.54c0.4,0.12,0.89,0.22,1.48,0.3
		L369.77,106.26z"/>
</g>
<g>
	<g>
		<path class="st0" d="M186.18,100.61c-2.57,16.54-17.92,30.25-34.8,30.75c-0.64,0.03-1.28,0.05-1.92,0.05h-37.31V56.8h3.84v70.78
			c0,0,32.99,0,32.98,0c14.35,0.19,28.19-9.58,32.32-23.13h-42.17V56.8h3.84v43.81H186.18z"/>
	</g>
	<g>
		<path class="st0" d="M186.73,92.94h-3.84c0.06-16.37-15.13-31.93-31.51-32.23v-3.84C170.16,57.38,186.59,74.16,186.73,92.94z"/>
	</g>
</g>
</svg>
